<svg width="25" height="24" viewBox="0 0 25 24" fill="none" xmlns="http://www.w3.org/2000/svg">
<path d="M20.2114 12.5422C20.4739 12.9326 20.7365 13.2362 20.9991 13.6266C21.3929 13.4965 21.7868 13.3663 22.1806 13.2362C22.3557 13.1928 22.487 13.1061 22.662 13.0627C23.0996 12.9326 23.3622 13.0627 23.4935 13.3663C23.6248 13.67 23.4935 13.9736 23.0996 14.1471C22.8371 14.2772 22.5307 14.364 22.2244 14.4507C22.0056 14.5375 21.8305 14.6242 21.6117 14.711C21.7868 15.1881 21.9181 15.6219 22.0931 16.1424C22.3994 16.1424 22.7058 16.1424 22.9683 16.1424C23.2747 16.1424 23.6248 16.099 23.9311 16.1424C24.2812 16.1858 24.5 16.4026 24.5 16.7496C24.5 17.0533 24.325 17.2268 23.9749 17.2702C23.6685 17.3135 23.3622 17.2702 23.0559 17.3135C22.8371 17.3135 22.5745 17.3569 22.3119 17.3569C22.1806 17.9208 22.0931 18.4413 21.9618 19.0052C22.3557 19.2654 22.7933 19.5691 23.1872 19.8293C23.6685 20.133 23.7998 20.4366 23.581 20.7836C23.3622 21.1306 23.0559 21.1306 22.5745 20.827C22.1806 20.5667 21.7868 20.3065 21.3492 20.0462C20.9553 20.3932 20.5615 20.6968 20.1238 21.0872C20.2551 21.3041 20.3426 21.5644 20.4739 21.7812C20.6052 22.0415 20.7365 22.2584 20.8678 22.5186C21.0428 22.909 20.9553 23.2126 20.649 23.3428C20.3426 23.5163 20.0363 23.3861 19.8175 23.0391C19.6425 22.7789 19.5112 22.4752 19.3799 22.1716C19.2486 21.9547 19.1611 21.7379 19.0298 21.521C18.6797 21.5644 18.3296 21.6511 17.9358 21.6945C17.892 22.1282 17.8482 22.5186 17.8045 22.909C17.7607 23.1259 17.8045 23.3428 17.7169 23.5596C17.6294 23.8633 17.3669 24.0368 17.0605 23.9934C16.7542 23.95 16.5791 23.7331 16.6229 23.4729C16.6229 22.9958 16.6667 22.4753 16.7104 21.9981C16.7104 21.9114 16.7104 21.8246 16.7104 21.6945C16.2728 21.5644 15.7914 21.3909 15.2663 21.2174C15.0913 21.6511 14.96 21.9981 14.7849 22.3885C14.6974 22.562 14.6536 22.7355 14.5661 22.8656C14.3911 23.1259 14.0847 23.2126 13.8222 23.0825C13.5596 22.9524 13.4283 22.7355 13.5158 22.4319C13.6034 22.0849 13.7784 21.7379 13.9097 21.3909C13.9972 21.174 14.0847 20.9571 14.1723 20.6968C13.7346 20.4366 13.297 20.1763 12.8156 19.8727C12.5531 20.2631 12.2905 20.6535 12.0279 21.0438C11.6778 21.5644 11.3715 21.6945 11.0214 21.4776C10.7151 21.2607 10.7151 20.9137 11.0214 20.4366C11.1527 20.2197 11.284 20.0462 11.4153 19.8293C11.5466 19.6558 11.6341 19.4823 11.8091 19.2221C11.3715 18.8751 10.8464 18.5714 10.2775 18.2678C10.0149 18.6582 9.79609 19.0052 9.57729 19.3522C9.48976 19.4823 9.40224 19.6124 9.31472 19.7426C9.09591 20.0028 8.74582 20.0462 8.48325 19.8727C8.26444 19.6992 8.17691 19.4389 8.35196 19.1353C8.61453 18.6582 8.92086 18.2244 9.22719 17.7039C8.78958 17.4437 8.35196 17.1834 7.82682 16.8798C7.65177 17.0967 7.52049 17.2702 7.34544 17.487C7.1704 17.7039 7.03911 17.9208 6.86407 18.0943C6.51397 18.5281 6.2514 18.6148 5.94507 18.3979C5.63874 18.181 5.63874 17.834 5.94507 17.4003C6.12012 17.14 6.29516 16.9232 6.47021 16.6629C6.55773 16.5328 6.64526 16.3593 6.77654 16.1858C6.38269 15.8388 5.98883 15.4917 5.55122 15.1014C5.1136 15.4484 4.67598 15.8388 4.23837 16.1858C3.75699 16.5761 3.4069 16.6195 3.14433 16.2725C2.92552 15.9689 3.01304 15.6653 3.45066 15.2749C4.01956 14.8411 4.45718 14.4941 4.89479 14.1037C4.58846 13.67 4.32589 13.323 4.01956 12.8892C3.53818 13.1061 3.0568 13.2796 2.61919 13.4531C2.4879 13.4965 2.35662 13.5832 2.18157 13.6266C1.83148 13.7133 1.52515 13.6266 1.43762 13.323C1.30634 13.0193 1.39386 12.7591 1.74395 12.5856C2.18157 12.3687 2.66295 12.1952 3.10057 11.9783C3.18809 11.9349 3.27561 11.8916 3.45066 11.8048C3.31937 11.3711 3.14433 10.9807 3.01304 10.5469C2.70671 10.5903 2.40038 10.6337 2.09405 10.6337C1.83148 10.677 1.52515 10.7204 1.26258 10.7204C0.868722 10.7638 0.606153 10.5903 0.562391 10.2867C0.518629 9.93965 0.781199 9.63602 1.17505 9.59264C1.70019 9.50589 2.18157 9.46252 2.70671 9.37576C2.70671 8.85526 2.70671 8.4215 2.70671 7.94436C2.18157 7.81424 1.70019 7.68411 1.21882 7.55398C0.649914 7.42385 0.431106 7.1636 0.518629 6.81659C0.606153 6.46959 0.868722 6.38284 1.48139 6.51296C1.919 6.59971 2.35662 6.68647 2.838 6.77322C3.0568 6.29608 3.23185 5.81895 3.45066 5.29844C3.14433 5.03819 2.79423 4.82131 2.4879 4.56105C2.31286 4.38755 2.09405 4.21405 1.96276 3.99717C1.87524 3.91042 1.78772 3.65016 2.00652 3.43328C2.26909 3.25978 2.4879 3.2164 2.75047 3.38991C3.01304 3.56341 3.23185 3.73691 3.49442 3.91042C3.71323 4.08392 3.93204 4.25742 4.19461 4.43093C4.5447 4.12729 4.89479 3.82366 5.24488 3.47666C5.06984 3.0429 4.85103 2.60914 4.63222 2.17538C4.5447 2.00188 4.45718 1.82838 4.41341 1.6115C4.32589 1.35125 4.45718 1.09099 4.71975 1.00424C4.98232 0.874111 5.24489 0.960863 5.41993 1.22112C5.59498 1.48137 5.77002 1.82838 5.90131 2.17538C6.03259 2.39226 6.12012 2.65252 6.29516 2.91277C6.77654 2.73927 7.21416 2.56577 7.7393 2.39226C7.69554 2.00188 7.65177 1.6115 7.60801 1.22112C7.56425 1.00424 7.52049 0.78736 7.56425 0.570481C7.56425 0.223475 7.7393 0.00659583 8.04563 0.00659583C8.35196 -0.03678 8.61453 0.136723 8.65829 0.440354C8.74582 0.78736 8.74582 1.17774 8.83334 1.52475C8.8771 1.74163 8.92086 1.95851 8.96462 2.17538C9.446 2.17538 9.88362 2.17538 10.365 2.17538C10.4963 1.82838 10.6276 1.438 10.8026 1.04761C10.8901 0.874112 10.9339 0.657233 11.0214 0.527105C11.1965 0.223475 11.459 0.136723 11.7216 0.266851C11.9842 0.396978 12.1592 0.657233 12.0717 0.960863C11.9404 1.39462 11.7654 1.82838 11.6341 2.26214C11.5903 2.34889 11.5903 2.47902 11.5466 2.60914C11.9842 2.82602 12.4218 3.0429 12.9469 3.30316C13.2095 2.99952 13.5158 2.65252 13.7784 2.34889C13.9097 2.21876 14.041 2.04526 14.1723 1.91513C14.3911 1.69825 14.7412 1.69825 14.96 1.87175C15.0913 2.04526 15.1788 2.34889 14.96 2.60914C14.6974 2.95615 14.3911 3.25978 14.1285 3.60679C14.041 3.69354 13.9534 3.82366 13.8659 3.95379C14.2598 4.3008 14.6099 4.6478 15.0475 5.03819C15.3976 4.73456 15.7039 4.4743 15.9665 4.17067C16.0978 4.04054 16.2291 3.91042 16.3603 3.82366C16.6229 3.65016 16.9292 3.69354 17.148 3.91042C17.3669 4.1273 17.3669 4.43093 17.1043 4.6478C16.798 4.99481 16.4041 5.29844 16.054 5.64545C15.9665 5.7322 15.9227 5.81895 15.7914 5.9057C16.054 6.25271 16.2728 6.59971 16.5791 6.94672C16.8417 6.77322 17.0605 6.64309 17.2793 6.51296C17.4981 6.33946 17.7169 6.16596 17.9795 6.03583C18.2859 5.86233 18.6359 5.9057 18.811 6.12258C19.0298 6.38284 18.9423 6.72984 18.6359 6.9901C18.1983 7.3371 17.7169 7.64073 17.2356 7.98774C17.4544 8.4215 17.6732 8.85526 17.9358 9.33239C18.3296 9.07213 18.6359 8.85526 18.9423 8.68175C19.0736 8.595 19.2048 8.46487 19.3799 8.37812C19.6862 8.24799 19.9488 8.29137 20.1238 8.55163C20.2989 8.81188 20.2551 9.07213 20.0363 9.28901C19.7737 9.50589 19.5112 9.6794 19.2486 9.8529C19.0298 9.98303 18.811 10.1565 18.5922 10.33C18.7672 10.8505 19.1173 11.1975 19.4674 11.6313C19.6862 11.4578 19.9488 11.3277 20.1676 11.1975C20.4302 11.024 20.6927 10.8072 20.9991 10.677C21.3054 10.5035 21.6117 10.5903 21.7868 10.8505C21.9618 11.1108 21.9181 11.3711 21.6555 11.5879C21.4804 11.7614 21.2179 11.8916 20.9991 12.0217C20.7365 12.1952 20.4739 12.3687 20.2114 12.5422ZM9.446 3.38991C8.26444 3.38991 7.30168 3.73691 6.38269 4.25742C4.50094 5.29844 3.80075 6.94672 3.93204 9.02876C4.01956 10.4602 4.58846 11.6747 5.41993 12.8458C6.51397 14.364 7.95811 15.4917 9.57729 16.4026C10.5838 16.9232 11.5466 17.5304 12.5093 18.0943C13.1657 18.4847 13.8222 18.9618 14.4786 19.3088C15.2225 19.6992 15.9665 20.0462 16.7542 20.3065C18.067 20.6968 19.2486 20.3498 20.2114 19.3956C21.1304 18.4847 21.2179 17.4003 20.8678 16.2291C20.5177 15.058 19.905 14.0603 19.1173 13.1495C18.1108 11.9783 17.2793 10.7204 16.5354 9.33239C16.1415 8.55162 15.6164 7.77086 15.0913 7.03347C14.3473 5.99245 13.4283 5.08156 12.378 4.38755C11.459 3.73691 10.4525 3.38991 9.446 3.38991Z" fill="#4338CA"/>
<path d="M9.79614 13.1061C7.65182 13.1061 5.94511 11.3711 5.94511 9.20229C5.98888 7.07688 7.69558 5.4286 9.8399 5.4286C12.028 5.4286 13.7347 7.16363 13.6909 9.28904C13.7347 11.4145 11.9842 13.1061 9.79614 13.1061ZM9.8399 11.935C11.3716 11.935 12.5969 10.7204 12.5969 9.24567C12.5969 7.77089 11.3716 6.55637 9.8399 6.55637C8.352 6.55637 7.12668 7.72752 7.12668 9.20229C7.12668 10.7204 8.30824 11.935 9.8399 11.935Z" fill="#4338CA"/>
<path d="M19.1612 16.1424C19.1612 17.4437 18.1109 18.4847 16.8419 18.4847C15.529 18.4847 14.435 17.4437 14.435 16.099C14.435 14.7544 15.4852 13.7133 16.8419 13.7567C18.1109 13.7567 19.1612 14.7977 19.1612 16.1424ZM17.9797 16.099C17.9797 15.4484 17.4545 14.8845 16.7981 14.8845C16.1417 14.8845 15.5728 15.4484 15.5728 16.099C15.5728 16.7496 16.0979 17.2702 16.7543 17.3135C17.4108 17.3569 17.9797 16.793 17.9797 16.099Z" fill="#4338CA"/>
</svg>
