<svg width="22" height="21" viewBox="0 0 22 21" fill="none" xmlns="http://www.w3.org/2000/svg">
<path d="M18.0707 14.8876C17.4895 14.454 17.3107 13.8471 17.1319 13.1969C16.7295 11.7663 15.8802 10.6392 14.5837 9.85888C14.2261 9.64212 13.9132 9.42537 13.5555 9.16527C11.7674 9.90223 10.4263 11.116 9.8451 13.0235C9.62157 13.8038 9.08512 14.324 8.23574 14.454C6.7605 14.6708 5.6429 13.3703 6.08994 11.9831C6.35817 11.116 6.7158 10.249 7.25225 9.51207C7.87811 8.64506 8.54867 7.86475 9.44276 7.21449C10.0239 6.82433 10.5604 6.34747 11.2309 6.08737C12.2144 5.65386 12.885 5.74056 13.6897 6.47752C13.7344 6.52088 13.7791 6.56423 13.8685 6.60758C14.0026 6.56423 14.1367 6.47752 14.2708 6.43417C14.8967 6.13072 15.5672 6.13072 16.1931 6.47752C18.3836 7.69134 19.9035 9.46872 20.7082 11.8097C20.7529 11.9397 20.7976 12.0698 20.8423 12.1998C21.2 13.2836 21.1553 13.5437 20.6635 14.5841C20.7529 14.6708 20.887 14.8009 20.9764 14.8876C21.6023 15.5812 21.6917 16.5349 21.1106 17.3152C19.9482 18.7891 18.473 19.8295 16.6848 20.4364C15.7013 20.7832 14.7179 20.9566 13.6897 21C12.7509 21 12.0356 20.4798 11.7674 19.6128C11.4992 18.8325 11.8121 18.0088 12.5273 17.4886C12.885 17.2285 13.2873 17.1851 13.7344 17.1851C15.2543 17.0984 16.506 16.4915 17.5789 15.4945C17.7577 15.2777 17.8919 15.061 18.0707 14.8876ZM19.5012 11.2027C18.6965 9.68547 17.6236 8.4283 16.1484 7.51794C15.9696 7.38789 15.7908 7.30119 15.5672 7.21449C15.1649 7.08443 14.7179 7.21449 14.539 7.56129C14.3155 7.9081 14.4049 8.3416 14.7179 8.64506C14.852 8.77511 15.0308 8.86181 15.1649 8.94851C16.059 9.46872 16.819 10.2057 17.3554 11.0727C17.8024 11.7663 18.1154 12.5466 18.3389 13.3703C18.473 13.9338 18.9201 14.1939 19.4118 14.0639C19.9035 13.9338 20.2165 13.5437 20.0824 12.9801C19.8588 12.4166 19.68 11.8097 19.5012 11.2027ZM11.6333 7.04108C9.8451 7.95145 8.45926 9.20862 7.60988 11.0293C7.43107 11.4629 7.25225 11.8964 7.11814 12.3299C6.98403 12.8067 7.25225 13.2402 7.69929 13.3703C8.19104 13.5003 8.59338 13.2836 8.77219 12.8067C8.8169 12.72 8.8616 12.59 8.8616 12.4599C9.48746 10.7692 10.5604 9.46872 12.2144 8.64506C12.3932 8.55836 12.6168 8.4283 12.7956 8.3416C13.1532 8.0815 13.2426 7.64799 13.0638 7.30119C12.885 6.95438 12.4826 6.73763 12.0356 6.82433C11.9462 6.86768 11.8121 6.95438 11.6333 7.04108ZM16.9978 19.1793C18.026 18.7024 18.9648 18.0522 19.7694 17.2285C19.9482 17.0117 20.1718 16.8383 20.3059 16.6216C20.5741 16.2314 20.5294 15.7546 20.1271 15.4511C19.7694 15.191 19.2777 15.191 18.9201 15.5378C18.8306 15.6245 18.7412 15.7546 18.6518 15.8413C17.6683 16.925 16.506 17.6187 15.0755 17.9655C14.5837 18.0955 14.0473 18.0955 13.5555 18.1822C13.1085 18.2689 12.7956 18.6157 12.7956 19.0059C12.7956 19.4394 13.1085 19.7862 13.5555 19.8295C13.6897 19.8295 13.7791 19.8295 13.9132 19.8295C14.9861 19.8295 15.9696 19.5694 16.9978 19.1793Z" fill="#4338CA"/>
<path d="M7.2972 1.57887C7.87836 0.451754 8.99596 0.321702 10.0242 0.148299C12.7511 -0.285207 15.344 0.235001 17.6686 1.66557C18.3391 2.05573 18.6968 2.66264 18.6968 3.44295C18.6968 4.96022 17.1768 5.95729 15.7016 5.39373C15.5675 5.35038 15.4334 5.26368 15.2993 5.17698C13.6899 4.13656 11.9017 3.96316 10.0242 4.35331C9.3983 4.48337 8.81715 4.57007 8.14658 4.30996C7.43132 5.09028 6.67134 5.82724 5.95608 6.6509C5.68785 6.95435 5.50903 7.38786 5.33022 7.77802C5.01729 8.51498 4.83847 9.25194 4.79377 10.0323C4.79377 10.5525 4.48084 10.8993 4.21261 11.2461C4.52554 11.9397 4.79377 12.5899 5.06199 13.2402C5.68785 14.5841 6.67134 15.6245 8.01247 16.3181C8.19129 16.4048 8.3254 16.4482 8.50422 16.5349C9.57712 17.0984 9.97946 18.2689 9.44301 19.3093C8.95126 20.3064 7.74425 20.7399 6.67134 20.3064C5.24081 19.7428 4.0338 18.8758 3.0056 17.7487C2.02211 16.6649 1.26213 15.4511 0.770387 14.1072C0.323345 12.8934 0.412754 12.4165 1.17273 11.3761C1.17273 11.3328 1.12802 11.2461 1.12802 11.2027C0.59157 10.6392 0.502162 9.94555 0.546866 9.20859C0.680979 8.12482 0.9045 7.04106 1.39625 6.04399C1.70918 5.39373 2.20092 4.78682 2.55856 4.17991C3.0056 3.3996 3.67616 2.79269 4.34672 2.18578C5.19611 1.40547 6.13489 1.10201 7.2972 1.57887ZM11.7229 1.14536C11.41 1.18872 10.9182 1.18872 10.4712 1.23207C9.97946 1.31877 9.44301 1.40547 8.99596 1.57887C8.45951 1.75227 8.19129 2.22913 8.3701 2.70599C8.50422 3.2262 8.99596 3.4863 9.57712 3.3996C9.66653 3.3996 9.80064 3.35625 9.89005 3.3129C11.3206 2.87939 12.7511 3.05279 14.1369 3.3996C14.5393 3.52965 14.8969 3.74641 15.2993 3.91981C15.4781 4.00651 15.7016 4.13656 15.8804 4.22326C16.6404 4.52672 17.1321 4.39667 17.4004 3.91981C17.7133 3.3996 17.4898 2.87939 16.7745 2.48924C15.2993 1.62222 13.6452 1.18872 11.7229 1.14536ZM1.75388 9.29529C1.70918 10.2057 2.02211 10.5958 2.60326 10.6825C3.13971 10.7692 3.54205 10.3791 3.67616 9.68545C3.76557 9.29529 3.81027 8.90514 3.89968 8.55833C4.0338 7.86472 4.30202 7.21446 4.70436 6.60755C5.28551 5.74054 5.82196 4.83017 6.76075 4.30996C6.80546 4.30996 6.85016 4.26661 6.85016 4.22326C7.2078 3.83311 7.2525 3.2262 6.93957 2.87939C6.58194 2.48924 6.04549 2.44589 5.55374 2.74934C5.41963 2.83604 5.28551 2.96609 5.1514 3.05279C4.21261 3.78976 3.54205 4.74347 2.87149 5.74054C2.11151 6.86765 1.9774 8.21152 1.75388 9.29529ZM2.64796 11.983C2.55856 12.0264 2.46915 12.0264 2.37974 12.0697C1.88799 12.2865 1.61977 12.72 1.84329 13.2836C2.69267 15.9713 4.43613 17.9221 7.07368 19.1359C7.2078 19.1792 7.34191 19.2226 7.47602 19.2226C7.92306 19.2659 8.3254 19.0492 8.50422 18.659C8.68303 18.2689 8.54892 17.8354 8.19129 17.5753C8.01247 17.4452 7.83365 17.4019 7.65484 17.3152C5.77726 16.3615 4.52554 14.9309 3.85498 13.0234C3.81027 12.85 3.76557 12.6766 3.67616 12.5466C3.40794 12.1564 3.09501 11.983 2.64796 11.983Z" fill="#4338CA"/>
</svg>
