<svg width="24" height="24" viewBox="0 0 24 24" fill="none" xmlns="http://www.w3.org/2000/svg">
<path d="M18.734 16.1786C18.1805 15.7658 18.0102 15.1878 17.8399 14.5685C17.4567 13.206 16.6478 12.1326 15.4131 11.3894C15.0725 11.183 14.7745 10.9765 14.4339 10.7288C12.7308 11.4307 11.4536 12.5867 10.9001 14.4033C10.6872 15.1465 10.1763 15.6419 9.36738 15.7658C7.96239 15.9722 6.898 14.7336 7.32375 13.4124C7.57921 12.5867 7.91981 11.761 8.43071 11.0591C9.02677 10.2334 9.6654 9.49023 10.5169 8.87094C11.0704 8.49936 11.5813 8.04521 12.2199 7.79749C13.1566 7.38463 13.7952 7.4672 14.5616 8.16907C14.6042 8.21036 14.6467 8.25164 14.7319 8.29293C14.8596 8.25164 14.9873 8.16907 15.1151 8.12778C15.7111 7.83878 16.3497 7.83878 16.9458 8.16907C19.032 9.32509 20.4796 11.0178 21.2459 13.2473C21.2885 13.3712 21.3311 13.495 21.3737 13.6189C21.7143 14.651 21.6717 14.8987 21.2034 15.8896C21.2885 15.9722 21.4162 16.0961 21.5014 16.1786C22.0974 16.8392 22.1826 17.7475 21.6291 18.4907C20.5221 19.8944 19.1172 20.8853 17.4141 21.4633C16.4775 21.7936 15.5408 21.9587 14.5616 22C13.6675 22 12.9863 21.5046 12.7308 20.6788C12.4754 19.9357 12.7734 19.1512 13.4546 18.6558C13.7952 18.4081 14.1784 18.3668 14.6042 18.3668C16.0517 18.2842 17.2438 17.7062 18.2656 16.7566C18.4359 16.5502 18.5637 16.3438 18.734 16.1786ZM20.0964 12.6693C19.33 11.2243 18.3082 10.027 16.9032 9.15994C16.7329 9.03608 16.5626 8.95351 16.3497 8.87094C15.9666 8.74708 15.5408 8.87094 15.3705 9.20123C15.1576 9.53152 15.2428 9.94438 15.5408 10.2334C15.6685 10.3572 15.8388 10.4398 15.9666 10.5224C16.8181 11.0178 17.5419 11.7197 18.0528 12.5454C18.4785 13.206 18.7765 13.9492 18.9894 14.7336C19.1172 15.2703 19.5429 15.518 20.0112 15.3942C20.4796 15.2703 20.7776 14.8987 20.6499 14.362C20.437 13.8253 20.2667 13.2473 20.0964 12.6693ZM12.6031 8.70579C10.9001 9.57281 9.58025 10.7701 8.77132 12.5041C8.60102 12.917 8.43072 13.3299 8.30299 13.7427C8.17526 14.1969 8.43072 14.6097 8.85647 14.7336C9.3248 14.8575 9.70798 14.651 9.87828 14.1969C9.92086 14.1143 9.96343 13.9904 9.96343 13.8666C10.5595 12.2564 11.5813 11.0178 13.1566 10.2334C13.3269 10.1508 13.5398 10.027 13.7101 9.94438C14.0507 9.69667 14.1358 9.2838 13.9655 8.95351C13.7952 8.62322 13.412 8.41679 12.9863 8.49936C12.9011 8.54065 12.7734 8.62322 12.6031 8.70579ZM17.7122 20.266C18.6914 19.8118 19.5855 19.1925 20.3518 18.4081C20.5221 18.2017 20.735 18.0365 20.8627 17.8301C21.1182 17.4585 21.0756 17.0044 20.6924 16.7153C20.3518 16.4676 19.8835 16.4676 19.5429 16.7979C19.4578 16.8805 19.3726 17.0044 19.2875 17.0869C18.3508 18.1191 17.2438 18.7797 15.8814 19.11C15.4131 19.2338 14.9022 19.2338 14.4339 19.3164C14.0081 19.399 13.7101 19.7293 13.7101 20.1008C13.7101 20.5137 14.0081 20.844 14.4339 20.8853C14.5616 20.8853 14.6467 20.8853 14.7745 20.8853C15.7963 20.8853 16.7329 20.6376 17.7122 20.266Z" fill="#303F9F"/>
<path d="M8.47353 3.50369C9.02701 2.43024 10.0914 2.30638 11.0706 2.14124C13.6677 1.72837 16.1371 2.22381 18.351 3.58626C18.9897 3.95784 19.3303 4.53585 19.3303 5.279C19.3303 6.72402 17.8827 7.67361 16.4777 7.13689C16.35 7.0956 16.2223 7.01303 16.0945 6.93045C14.5618 5.93958 12.8588 5.77444 11.0706 6.14601C10.4746 6.26987 9.92109 6.35245 9.28246 6.10473C8.60125 6.84788 7.87747 7.54975 7.19626 8.33419C6.94081 8.6232 6.77051 9.03606 6.60021 9.40764C6.30218 10.1095 6.13188 10.8114 6.0893 11.5545C6.0893 12.05 5.79127 12.3803 5.53582 12.7105C5.83385 13.3711 6.0893 13.9904 6.34476 14.6097C6.94081 15.8896 7.87747 16.8805 9.15473 17.541C9.32504 17.6236 9.45276 17.6649 9.62306 17.7475C10.6449 18.2842 11.0281 19.3989 10.5171 20.3898C10.0488 21.3394 8.89928 21.7523 7.87747 21.3394C6.51506 20.8027 5.36552 19.9769 4.38628 18.9035C3.44962 17.8713 2.72584 16.7153 2.25751 15.4354C1.83176 14.2794 1.91691 13.8253 2.64069 12.8344C2.64069 12.7931 2.59812 12.7105 2.59812 12.6693C2.08721 12.1325 2.00206 11.472 2.04463 10.7701C2.17236 9.73793 2.38524 8.70577 2.85357 7.75618C3.1516 7.13689 3.61993 6.55888 3.96053 5.98087C4.38628 5.23771 5.02492 4.65971 5.66355 4.0817C6.47248 3.33854 7.36657 3.04954 8.47353 3.50369ZM12.6885 3.09082C12.3905 3.13211 11.9221 3.13211 11.4964 3.1734C11.0281 3.25597 10.5171 3.33854 10.0914 3.50369C9.58049 3.66883 9.32504 4.12298 9.49534 4.57713C9.62306 5.07257 10.0914 5.32029 10.6449 5.23771C10.73 5.23771 10.8578 5.19643 10.9429 5.15514C12.3053 4.74228 13.6677 4.90742 14.9876 5.23771C15.3707 5.36157 15.7114 5.56801 16.0945 5.73315C16.2648 5.81572 16.4777 5.93958 16.648 6.02215C17.3718 6.31116 17.8401 6.1873 18.0956 5.73315C18.3936 5.23771 18.1807 4.74228 17.4995 4.3707C16.0945 3.54497 14.5192 3.13211 12.6885 3.09082ZM3.19417 10.8527C3.1516 11.7197 3.44962 12.0912 4.00311 12.1738C4.51401 12.2564 4.89719 11.8848 5.02492 11.2242C5.11007 10.8527 5.15264 10.4811 5.23779 10.1508C5.36552 9.49021 5.62097 8.87091 6.00415 8.2929C6.55763 7.46718 7.06854 6.60016 7.96262 6.10473C8.0052 6.10473 8.04777 6.06344 8.04777 6.02215C8.38838 5.65058 8.43095 5.07257 8.13292 4.74228C7.79232 4.3707 7.28141 4.32941 6.81308 4.61842C6.68536 4.70099 6.55763 4.82485 6.42991 4.90742C5.53582 5.60929 4.89719 6.51759 4.25856 7.46718C3.53478 8.54062 3.40705 9.8205 3.19417 10.8527ZM4.04568 13.4124C3.96053 13.4537 3.87538 13.4537 3.79023 13.495C3.3219 13.7014 3.06645 14.1143 3.27932 14.651C4.08826 17.2108 5.7487 19.0686 8.26065 20.2247C8.38838 20.2659 8.5161 20.3072 8.64383 20.3072C9.06958 20.3485 9.45276 20.1421 9.62306 19.7705C9.79337 19.3989 9.66564 18.9861 9.32504 18.7383C9.15473 18.6145 8.98443 18.5732 8.81413 18.4906C7.02596 17.5823 5.83385 16.2199 5.19522 14.4033C5.15264 14.2381 5.11007 14.073 5.02492 13.9491C4.76946 13.5776 4.47144 13.4124 4.04568 13.4124Z" fill="#303F9F"/>
</svg>
