<svg width="24" height="24" viewBox="0 0 24 24" fill="none" xmlns="http://www.w3.org/2000/svg">
<path d="M18.9859 12.4938C19.2238 12.8493 19.4616 13.1258 19.6995 13.4813C20.0563 13.3628 20.4131 13.2443 20.7699 13.1258C20.9285 13.0863 21.0474 13.0073 21.206 12.9678C21.6025 12.8493 21.8403 12.9678 21.9593 13.2443C22.0782 13.5208 21.9593 13.7973 21.6025 13.9553C21.3646 14.0738 21.0871 14.1528 20.8096 14.2318C20.6113 14.3108 20.4528 14.3898 20.2545 14.4688C20.4131 14.9033 20.5321 15.2984 20.6906 15.7724C20.9681 15.7724 21.2457 15.7724 21.4835 15.7724C21.761 15.7724 22.0782 15.7329 22.3557 15.7724C22.6729 15.8119 22.8711 16.0094 22.8711 16.3254C22.8711 16.6019 22.7125 16.7599 22.3954 16.7994C22.1178 16.8389 21.8403 16.7994 21.5628 16.8389C21.3646 16.8389 21.1267 16.8784 20.8889 16.8784C20.7699 17.3919 20.6906 17.8659 20.5717 18.3794C20.9285 18.6164 21.3249 18.8929 21.6817 19.1299C22.1178 19.4064 22.2368 19.6829 22.0386 19.9989C21.8403 20.3149 21.5628 20.3149 21.1267 20.0384C20.7699 19.8014 20.4131 19.5644 20.0167 19.3274C19.6599 19.6434 19.3031 19.9199 18.9066 20.2754C19.0256 20.4729 19.1048 20.7099 19.2238 20.9074C19.3427 21.1444 19.4616 21.3419 19.5806 21.5789C19.7392 21.9344 19.6599 22.2109 19.3824 22.3295C19.1048 22.4875 18.8273 22.3689 18.6291 22.0529C18.4705 21.8159 18.3516 21.5394 18.2327 21.2629C18.1137 21.0654 18.0344 20.8679 17.9155 20.6704C17.5983 20.7099 17.2812 20.7889 16.9244 20.8284C16.8847 21.2234 16.8451 21.5789 16.8054 21.9344C16.7658 22.1319 16.8054 22.3295 16.7262 22.527C16.6469 22.8035 16.409 22.9615 16.1315 22.922C15.854 22.8825 15.6954 22.685 15.735 22.448C15.735 22.0134 15.7747 21.5394 15.8143 21.1049C15.8143 21.0259 15.8143 20.9469 15.8143 20.8284C15.4179 20.7099 14.9818 20.5519 14.5061 20.3939C14.3475 20.7889 14.2285 21.1049 14.07 21.4604C13.9907 21.6184 13.951 21.7764 13.8717 21.8949C13.7132 22.1319 13.4356 22.2109 13.1978 22.0924C12.9599 21.9739 12.841 21.7764 12.9203 21.4999C12.9996 21.1839 13.1581 20.8679 13.2771 20.5519C13.3564 20.3544 13.4356 20.1569 13.5149 19.9199C13.1185 19.6829 12.722 19.4459 12.2859 19.1694C12.0481 19.5249 11.8102 19.8804 11.5723 20.2359C11.2552 20.7099 10.9777 20.8284 10.6605 20.6309C10.383 20.4334 10.383 20.1174 10.6605 19.6829C10.7795 19.4854 10.8984 19.3274 11.0173 19.1299C11.1363 18.9719 11.2155 18.8139 11.3741 18.5769C10.9777 18.2609 10.5019 17.9844 9.98656 17.7079C9.74869 18.0634 9.55046 18.3794 9.35224 18.6954C9.27295 18.8139 9.19366 18.9324 9.11437 19.0509C8.91615 19.2879 8.59899 19.3274 8.36112 19.1694C8.1629 19.0114 8.08361 18.7744 8.24219 18.4979C8.48006 18.0634 8.75757 17.6684 9.03508 17.1944C8.63864 16.9574 8.24219 16.7204 7.76645 16.4439C7.60787 16.6414 7.48894 16.7994 7.33036 16.9969C7.17178 17.1944 7.05285 17.3919 6.89427 17.5499C6.57711 17.9449 6.33924 18.0239 6.06173 17.8264C5.78422 17.6289 5.78422 17.3129 6.06173 16.9179C6.22031 16.6809 6.37889 16.4834 6.53747 16.2464C6.61675 16.1279 6.69604 15.9699 6.81498 15.8119C6.45818 15.4959 6.10137 15.1798 5.70493 14.8243C5.30848 15.1403 4.91203 15.4959 4.51558 15.8119C4.07949 16.1674 3.76233 16.2069 3.52447 15.8909C3.32624 15.6144 3.40553 15.3379 3.80198 14.9823C4.31736 14.5873 4.71381 14.2713 5.11026 13.9158C4.83274 13.5208 4.59487 13.2048 4.31736 12.8098C3.88127 13.0073 3.44518 13.1653 3.04873 13.3233C2.9298 13.3628 2.81086 13.4418 2.65228 13.4813C2.33512 13.5603 2.05761 13.4813 1.97832 13.2048C1.85939 12.9283 1.93868 12.6913 2.25584 12.5333C2.65228 12.3358 3.08837 12.1778 3.48482 11.9803C3.56411 11.9408 3.6434 11.9013 3.80198 11.8223C3.68305 11.4273 3.52447 11.0718 3.40553 10.6768C3.12802 10.7163 2.85051 10.7558 2.57299 10.7558C2.33512 10.7953 2.05761 10.8348 1.81974 10.8348C1.46294 10.8743 1.22507 10.7163 1.18543 10.4398C1.14578 10.1238 1.38365 9.84727 1.74045 9.80777C2.21619 9.72877 2.65228 9.68927 3.12802 9.61027C3.12802 9.13626 3.12802 8.74126 3.12802 8.30675C2.65228 8.18825 2.21619 8.06975 1.7801 7.95125C1.26472 7.83275 1.06649 7.59574 1.14578 7.27974C1.22507 6.96373 1.46294 6.88473 2.01797 7.00323C2.41441 7.08223 2.81086 7.16124 3.24695 7.24024C3.44518 6.80573 3.60376 6.37122 3.80198 5.89722C3.52447 5.66021 3.20731 5.46271 2.9298 5.22571C2.77122 5.06771 2.57299 4.9097 2.45406 4.7122C2.37477 4.6332 2.29548 4.3962 2.4937 4.19869C2.73157 4.04069 2.9298 4.00119 3.16766 4.15919C3.40553 4.3172 3.60376 4.4752 3.84162 4.6332C4.03985 4.7912 4.23807 4.9492 4.47594 5.10721C4.7931 4.8307 5.11026 4.5542 5.42741 4.23819C5.26883 3.84319 5.07061 3.44818 4.87239 3.05318C4.7931 2.89518 4.71381 2.73717 4.67416 2.53967C4.59487 2.30267 4.71381 2.06566 4.95168 1.98666C5.18954 1.86816 5.42741 1.94716 5.58599 2.18417C5.74457 2.42117 5.90315 2.73717 6.02208 3.05318C6.14102 3.25068 6.22031 3.48768 6.37889 3.72469C6.81498 3.56669 7.21143 3.40868 7.68716 3.25068C7.64752 2.89518 7.60787 2.53967 7.56823 2.18417C7.52858 1.98666 7.48894 1.78916 7.52858 1.59166C7.52858 1.27565 7.68716 1.07815 7.96468 1.07815C8.24219 1.03865 8.48006 1.19665 8.5197 1.47316C8.59899 1.78916 8.59899 2.14467 8.67828 2.46067C8.71792 2.65817 8.75757 2.85568 8.79721 3.05318C9.23331 3.05318 9.62975 3.05318 10.0658 3.05318C10.1848 2.73717 10.3037 2.38167 10.4623 2.02616C10.5416 1.86816 10.5812 1.67066 10.6605 1.55216C10.8191 1.27565 11.057 1.19665 11.2948 1.31515C11.5327 1.43366 11.6913 1.67066 11.612 1.94716C11.4931 2.34217 11.3345 2.73717 11.2155 3.13218C11.1759 3.21118 11.1759 3.32968 11.1363 3.44818C11.5327 3.64569 11.9291 3.84319 12.4049 4.08019C12.6428 3.80369 12.9203 3.48768 13.1581 3.21118C13.2771 3.09268 13.396 2.93468 13.5149 2.81617C13.7132 2.61867 14.0303 2.61867 14.2285 2.77667C14.3475 2.93468 14.4268 3.21118 14.2285 3.44818C13.9907 3.76419 13.7132 4.04069 13.4753 4.3567C13.396 4.4357 13.3167 4.5542 13.2374 4.6727C13.5942 4.98871 13.9114 5.30471 14.3078 5.66021C14.625 5.38371 14.9025 5.14671 15.1404 4.8702C15.2593 4.7517 15.3782 4.6332 15.4972 4.5542C15.735 4.3962 16.0126 4.4357 16.2108 4.6332C16.409 4.8307 16.409 5.10721 16.1711 5.30471C15.8936 5.62071 15.5368 5.89722 15.2197 6.21322C15.1404 6.29222 15.1007 6.37123 14.9818 6.45023C15.2197 6.76623 15.4179 7.08223 15.6954 7.39824C15.9333 7.24024 16.1315 7.12174 16.3297 7.00323C16.5279 6.84523 16.7262 6.68723 16.964 6.56873C17.2415 6.41073 17.5587 6.45023 17.7173 6.64773C17.9155 6.88473 17.8362 7.20074 17.5587 7.43774C17.1622 7.75374 16.7262 8.03025 16.2901 8.34625C16.4883 8.74126 16.6865 9.13626 16.9244 9.57077C17.2812 9.33377 17.5587 9.13626 17.8362 8.97826C17.9551 8.89926 18.0741 8.78076 18.2327 8.70176C18.5102 8.58326 18.748 8.62276 18.9066 8.85976C19.0652 9.09676 19.0256 9.33377 18.8273 9.53127C18.5895 9.72877 18.3516 9.88678 18.1137 10.0448C17.9155 10.1633 17.7173 10.3213 17.5191 10.4793C17.6776 10.9533 17.9948 11.2693 18.3119 11.6643C18.5102 11.5063 18.748 11.3878 18.9463 11.2693C19.1841 11.1113 19.422 10.9138 19.6995 10.7953C19.977 10.6373 20.2545 10.7163 20.4131 10.9533C20.5717 11.1903 20.5321 11.4273 20.2942 11.6248C20.1356 11.7828 19.8977 11.9013 19.6995 12.0198C19.4616 12.1778 19.2238 12.3358 18.9859 12.4938ZM9.23331 4.15919C8.1629 4.15919 7.29071 4.4752 6.45818 4.9492C4.75345 5.89722 4.11914 7.39824 4.23807 9.29427C4.31736 10.5978 4.83274 11.7038 5.58599 12.7703C6.57711 14.1528 7.88539 15.1798 9.35224 16.0094C10.2641 16.4834 11.1363 17.0364 12.0084 17.5499C12.6031 17.9054 13.1978 18.3399 13.7924 18.6559C14.4664 19.0114 15.1404 19.3274 15.854 19.5644C17.0433 19.9199 18.1137 19.6039 18.9859 18.7349C19.8184 17.9054 19.8977 16.9179 19.5806 15.8514C19.2634 14.7848 18.7084 13.8763 17.9948 13.0468C17.083 11.9803 16.3297 10.8348 15.6557 9.57077C15.2989 8.85976 14.8232 8.14875 14.3475 7.47724C13.6735 6.52923 12.841 5.69972 11.8895 5.06771C11.057 4.4752 10.1451 4.15919 9.23331 4.15919Z" fill="#303F9F"/>
<path d="M9.5505 13.0073C7.60791 13.0073 6.06177 11.4273 6.06177 9.4523C6.10141 7.51677 7.64756 6.01575 9.59015 6.01575C11.5724 6.01575 13.1185 7.59577 13.0789 9.5313C13.1185 11.4668 11.5327 13.0073 9.5505 13.0073ZM9.59015 11.9408C10.9777 11.9408 12.0878 10.8348 12.0878 9.4918C12.0878 8.14878 10.9777 7.04276 9.59015 7.04276C8.24223 7.04276 7.13218 8.10928 7.13218 9.4523C7.13218 10.8348 8.20258 11.9408 9.59015 11.9408Z" fill="#303F9F"/>
<path d="M18.0346 15.7724C18.0346 16.9574 17.0831 17.9054 15.9334 17.9054C14.744 17.9054 13.7529 16.9574 13.7529 15.7329C13.7529 14.5083 14.7044 13.5603 15.9334 13.5998C17.0831 13.5998 18.0346 14.5478 18.0346 15.7724ZM16.9642 15.7329C16.9642 15.1403 16.4884 14.6268 15.8937 14.6268C15.2991 14.6268 14.7837 15.1403 14.7837 15.7329C14.7837 16.3254 15.2594 16.7994 15.8541 16.8389C16.4488 16.8784 16.9642 16.3649 16.9642 15.7329Z" fill="#303F9F"/>
</svg>
