<svg width="19" height="22" viewBox="0 0 19 22" fill="none" xmlns="http://www.w3.org/2000/svg">
<path d="M8.12039 22C8.50654 22 8.76398 21.7097 8.76398 21.3364C8.67817 19.8848 8.8927 18.682 9.02142 18.0184L9.15013 17.2304C9.36466 15.8618 9.53629 14.9078 9.49338 13.5806C9.49338 13.2488 9.19304 13 8.80689 13C8.46364 13 8.1633 13.3318 8.2062 13.6636C8.29201 14.8249 8.12039 15.7788 7.90586 17.023L7.77714 17.8111C7.64842 18.5576 7.43389 19.8433 7.51971 21.4194C7.4768 21.7512 7.77714 22 8.12039 22Z" fill="#4338CA"/>
<path d="M17.7595 17.5808C17.4844 17.5808 17.2093 17.3988 17.1177 17.1258C16.9343 16.5343 16.9801 15.7607 17.026 14.6687C17.1635 12.7576 17.3469 9.89099 16.109 6.66035C16.0631 6.52385 16.0631 6.34184 16.109 6.20533C16.3841 5.3863 16.0631 3.79373 15.788 2.74719C15.0544 3.61172 14.1833 5.15879 14.2291 6.06883C14.275 6.43284 13.9999 6.75136 13.5873 6.79686C13.2205 6.84236 12.8995 6.52385 12.8537 6.15983C12.7161 4.38526 14.6418 1.51863 15.788 0.97261C15.9714 0.881606 16.1548 0.881606 16.2924 0.927108C16.4758 0.97261 16.6133 1.10912 16.705 1.29112C17.026 1.88265 17.9429 4.70377 17.4844 6.43284C18.7224 9.84549 18.539 12.8031 18.4014 14.8052C18.3556 15.6242 18.3097 16.3978 18.4014 16.7163C18.539 17.0803 18.3097 17.4443 17.9888 17.5808C17.8971 17.5353 17.8512 17.5808 17.7595 17.5808Z" fill="#4338CA"/>
<path d="M9.91945 6.93335C9.55266 6.97886 9.18586 7.06986 8.77322 7.11536C8.77322 7.16086 8.72737 7.20636 8.72737 7.25187C8.63567 7.61588 8.86492 7.9799 9.23171 8.0709C9.59851 8.16191 9.9653 7.9344 10.057 7.57038C10.1487 7.34287 10.1028 7.11536 9.91945 6.93335Z" fill="#4338CA"/>
<path d="M9.36898 14.2137C9.23144 14.2137 9.09389 14.2137 8.95634 14.1682C8.31445 14.0317 2.95008 12.4391 1.98725 11.5746C1.07026 10.801 0.611769 8.70793 0.52007 8.25291C0.428372 7.8889 0.657618 7.52488 1.07026 7.43388L6.61803 6.25083C6.89312 5.97782 7.44331 5.43179 8.1769 5.11328C8.22275 5.06778 8.31445 5.02228 8.40615 4.97677C8.95634 4.65826 10.1484 4.02123 11.5239 3.93023C11.8907 3.88473 12.2116 4.15774 12.2575 4.56726C12.3033 4.93127 12.0282 5.24979 11.6156 5.29529C10.5611 5.38629 9.55238 5.88681 9.04804 6.20533C8.91049 6.25083 8.81879 6.34183 8.72709 6.34183C7.99351 6.70585 7.48916 7.29737 7.48916 7.29737C7.39746 7.43388 7.25992 7.52488 7.12237 7.52488L1.98725 8.66243C2.21649 9.43596 2.53744 10.3005 2.85838 10.528C3.45442 11.0285 7.94766 12.4846 9.27729 12.8031C9.46068 12.8486 9.96502 12.7121 10.5611 12.2116C11.1571 11.7111 11.6156 10.983 11.799 10.3005C11.8907 9.93649 12.2575 9.70898 12.6243 9.79998C12.9911 9.89098 13.2203 10.255 13.1286 10.619C12.8994 11.5746 12.3033 12.5301 11.4781 13.2581C10.7445 13.8952 10.0109 14.2137 9.36898 14.2137Z" fill="#4338CA"/>
<path d="M1.66658 9.25396C1.66658 9.25396 2.44602 9.93649 3.13376 9.11746C3.8215 8.34392 3.50056 7.61589 3.50056 7.61589L1.02469 8.16192L1.66658 9.25396Z" fill="#4338CA"/>
<path d="M11.5243 5.34079C11.4784 5.34079 11.4326 5.34079 11.4326 5.34079C11.0658 5.29529 10.7907 4.93127 10.8365 4.56726C11.0199 3.47521 11.4784 0.836098 12.2579 0.153569C12.4413 0.0170632 12.6705 -0.0284387 12.8539 0.0170632C13.0832 0.0625652 13.2666 0.244573 13.3124 0.426581C13.4041 0.654091 14.1835 1.47313 14.8254 2.06465C15.1005 2.33766 15.1005 2.74718 14.8254 3.02019C14.5503 3.2932 14.1377 3.2932 13.8626 3.02019C13.5417 2.74718 13.129 2.29216 12.7622 1.92815C12.533 2.61067 12.3037 3.70272 12.1203 4.74927C12.1662 5.11328 11.8911 5.34079 11.5243 5.34079Z" fill="#4338CA"/>
<path fill-rule="evenodd" clip-rule="evenodd" d="M4.64645 9.64645C4.81498 9.47791 5.07904 9.45177 5.27735 9.58398L6.5 10.3991L7.72265 9.58398C7.92096 9.45177 8.18502 9.47791 8.35355 9.64645L9.35355 10.6464C9.54882 10.8417 9.54882 11.1583 9.35355 11.3536C9.15829 11.5488 8.84171 11.5488 8.64645 11.3536L7.93629 10.6434L6.77735 11.416C6.6094 11.528 6.3906 11.528 6.22265 11.416L5.06371 10.6434L3.85355 11.8536C3.65829 12.0488 3.34171 12.0488 3.14645 11.8536C2.95118 11.6583 2.95118 11.3417 3.14645 11.1464L4.64645 9.64645Z" fill="#4338CA"/>
</svg>
