<svg width="24" height="24" viewBox="0 0 24 24" fill="none" xmlns="http://www.w3.org/2000/svg">
<path d="M10.6204 23C11.0065 23 11.264 22.7097 11.264 22.3364C11.1782 20.8848 11.3927 19.682 11.5214 19.0184L11.6501 18.2304C11.8647 16.8618 12.0363 15.9078 11.9934 14.5806C11.9934 14.2488 11.693 14 11.3069 14C10.9636 14 10.6633 14.3318 10.7062 14.6636C10.792 15.8249 10.6204 16.7788 10.4059 18.023L10.2771 18.8111C10.1484 19.5576 9.93389 20.8433 10.0197 22.4194C9.9768 22.7512 10.2771 23 10.6204 23Z" fill="#303F9F"/>
<path d="M20.2595 18.5808C19.9844 18.5808 19.7093 18.3988 19.6177 18.1258C19.4343 17.5343 19.4801 16.7607 19.526 15.6687C19.6635 13.7576 19.8469 10.891 18.609 7.66035C18.5631 7.52385 18.5631 7.34184 18.609 7.20533C18.8841 6.3863 18.5631 4.79373 18.288 3.74719C17.5544 4.61172 16.6833 6.15879 16.7291 7.06883C16.775 7.43284 16.4999 7.75136 16.0873 7.79686C15.7205 7.84236 15.3995 7.52385 15.3537 7.15983C15.2161 5.38526 17.1418 2.51863 18.288 1.97261C18.4714 1.88161 18.6548 1.88161 18.7924 1.92711C18.9758 1.97261 19.1133 2.10912 19.205 2.29112C19.526 2.88265 20.4429 5.70377 19.9844 7.43284C21.2224 10.8455 21.039 13.8031 20.9014 15.8052C20.8556 16.6242 20.8097 17.3978 20.9014 17.7163C21.039 18.0803 20.8097 18.4443 20.4888 18.5808C20.3971 18.5353 20.3512 18.5808 20.2595 18.5808Z" fill="#303F9F"/>
<path d="M12.4194 7.93335C12.0527 7.97886 11.6859 8.06986 11.2732 8.11536C11.2732 8.16086 11.2274 8.20636 11.2274 8.25187C11.1357 8.61588 11.3649 8.9799 11.7317 9.0709C12.0985 9.16191 12.4653 8.9344 12.557 8.57038C12.6487 8.34287 12.6028 8.11536 12.4194 7.93335Z" fill="#303F9F"/>
<path d="M11.869 15.2137C11.7314 15.2137 11.5939 15.2137 11.4563 15.1682C10.8144 15.0317 5.45008 13.4391 4.48725 12.5746C3.57026 11.801 3.11177 9.70793 3.02007 9.25291C2.92837 8.8889 3.15762 8.52488 3.57026 8.43388L9.11803 7.25083C9.39312 6.97782 9.94331 6.43179 10.6769 6.11328C10.7228 6.06778 10.8145 6.02228 10.9061 5.97677C11.4563 5.65826 12.6484 5.02123 14.0239 4.93023C14.3907 4.88473 14.7116 5.15774 14.7575 5.56726C14.8033 5.93127 14.5282 6.24979 14.1156 6.29529C13.0611 6.38629 12.0524 6.88681 11.548 7.20533C11.4105 7.25083 11.3188 7.34183 11.2271 7.34183C10.4935 7.70585 9.98916 8.29737 9.98916 8.29737C9.89746 8.43388 9.75992 8.52488 9.62237 8.52488L4.48725 9.66243C4.71649 10.436 5.03744 11.3005 5.35838 11.528C5.95442 12.0285 10.4477 13.4846 11.7773 13.8031C11.9607 13.8486 12.465 13.7121 13.0611 13.2116C13.6571 12.7111 14.1156 11.983 14.299 11.3005C14.3907 10.9365 14.7575 10.709 15.1243 10.8C15.4911 10.891 15.7203 11.255 15.6286 11.619C15.3994 12.5746 14.8033 13.5301 13.9781 14.2581C13.2445 14.8952 12.5109 15.2137 11.869 15.2137Z" fill="#303F9F"/>
<path d="M4.16658 10.254C4.16658 10.254 4.94602 10.9365 5.63376 10.1175C6.3215 9.34392 6.00056 8.61589 6.00056 8.61589L3.52469 9.16192L4.16658 10.254Z" fill="#303F9F"/>
<path d="M14.0243 6.34079C13.9784 6.34079 13.9326 6.34079 13.9326 6.34079C13.5658 6.29529 13.2907 5.93127 13.3365 5.56726C13.5199 4.47521 13.9784 1.8361 14.7579 1.15357C14.9413 1.01706 15.1705 0.971561 15.3539 1.01706C15.5832 1.06257 15.7666 1.24457 15.8124 1.42658C15.9041 1.65409 16.6835 2.47313 17.3254 3.06465C17.6005 3.33766 17.6005 3.74718 17.3254 4.02019C17.0503 4.2932 16.6377 4.2932 16.3626 4.02019C16.0417 3.74718 15.629 3.29216 15.2622 2.92815C15.033 3.61067 14.8037 4.70272 14.6203 5.74927C14.6662 6.11328 14.3911 6.34079 14.0243 6.34079Z" fill="#303F9F"/>
<path fill-rule="evenodd" clip-rule="evenodd" d="M7.14645 10.6464C7.31498 10.4779 7.57904 10.4518 7.77735 10.584L9 11.3991L10.2227 10.584C10.421 10.4518 10.685 10.4779 10.8536 10.6464L11.8536 11.6464C12.0488 11.8417 12.0488 12.1583 11.8536 12.3536C11.6583 12.5488 11.3417 12.5488 11.1464 12.3536L10.4363 11.6434L9.27735 12.416C9.1094 12.528 8.8906 12.528 8.72265 12.416L7.56371 11.6434L6.35355 12.8536C6.15829 13.0488 5.84171 13.0488 5.64645 12.8536C5.45118 12.6583 5.45118 12.3417 5.64645 12.1464L7.14645 10.6464Z" fill="#303F9F"/>
</svg>
